<?xml version="1.0" standalone="no"?>
<!DOCTYPE svg PUBLIC "-//W3C//DTD SVG 20010904//EN"
 "http://www.w3.org/TR/2001/REC-SVG-20010904/DTD/svg10.dtd">
<svg version="1.0" xmlns="http://www.w3.org/2000/svg"
 width="316.000000pt" height="170.000000pt" viewBox="0 0 316.000000 170.000000"
 preserveAspectRatio="xMidYMid meet">

<g transform="translate(0.000000,170.000000) scale(0.100000,-0.100000)"
fill="#000000" stroke="none">
<path d="M1736 1633 c-3 -3 -6 -62 -6 -130 l0 -123 -35 0 -34 0 -4 -102 -3
-103 -2 128 c-1 79 2 127 8 127 6 0 10 20 10 45 0 37 -3 45 -19 45 -10 0 -21
-9 -24 -20 -3 -11 -10 -20 -16 -20 -6 0 -11 9 -11 20 0 15 -7 20 -25 20 -18 0
-25 -5 -25 -20 0 -11 -7 -20 -15 -20 -8 0 -15 9 -15 20 0 15 -7 20 -25 20 -22
0 -25 -4 -25 -39 0 -22 5 -43 10 -46 6 -4 10 -62 10 -141 l0 -134 245 0 245 0
0 135 c0 83 4 135 10 135 6 0 10 20 10 45 0 41 -2 45 -25 45 -16 0 -25 -6 -25
-15 0 -8 -7 -15 -15 -15 -8 0 -15 7 -15 15 0 8 -9 15 -20 15 -11 0 -20 -7 -20
-15 0 -8 -7 -15 -15 -15 -8 0 -15 7 -15 15 0 9 -9 15 -25 15 -23 0 -25 -4 -25
-44 0 -27 5 -46 13 -48 9 -2 11 -33 7 -128 l-6 -125 -2 103 -2 102 -35 0 -35
0 0 95 0 95 39 -6 c37 -6 63 7 41 21 -7 4 -7 12 0 24 8 15 6 17 -14 14 -13 -3
-33 0 -44 6 -10 6 -22 7 -26 4z m-142 -272 c3 -4 -6 -6 -19 -3 -22 4 -25 1
-25 -26 0 -27 4 -31 33 -35 29 -3 28 -4 -9 -5 -40 -2 -41 -1 -37 26 3 15 6 33
8 40 5 14 41 17 49 3z m337 -33 l6 -38 -41 2 c-37 1 -38 2 -8 5 28 4 32 8 32
34 0 22 -5 29 -20 29 -11 0 -20 -5 -20 -12 0 -6 -3 -9 -6 -5 -12 11 8 28 29
25 16 -2 23 -12 28 -40z m-163 -80 c7 -7 12 -27 12 -45 0 -32 -1 -33 -45 -33
-43 0 -45 1 -45 29 0 49 48 79 78 49z"/>
<path d="M1199 273 c-3 -136 -4 -146 -20 -156 -32 -20 -50 -1 -47 50 3 44 5
48 33 53 21 4 26 8 17 14 -24 15 -60 -3 -71 -36 -23 -65 30 -134 74 -98 10 9
15 9 15 1 0 -6 5 -11 10 -11 6 0 10 47 10 120 0 73 -4 120 -10 120 -5 0 -11
-26 -11 -57z"/>
<path d="M2435 317 c-3 -7 -4 -60 -3 -118 3 -113 20 -138 28 -42 4 45 9 59 23
61 32 6 47 -17 47 -74 0 -30 5 -54 10 -54 6 0 10 26 10 58 0 69 -22 99 -65 88
-24 -6 -25 -5 -25 38 0 44 -15 70 -25 43z"/>
<path d="M355 307 c-10 -24 -1 -207 10 -207 6 0 12 36 15 81 l5 81 23 -46 c12
-26 26 -45 30 -42 5 3 17 24 28 48 l19 43 5 -83 c3 -45 10 -82 15 -82 13 0 13
209 0 213 -5 1 -21 -19 -35 -45 -14 -26 -29 -50 -32 -54 -4 -3 -18 17 -32 44
-28 56 -43 70 -51 49z"/>
<path d="M1580 300 c-16 -16 -20 -33 -20 -95 0 -82 18 -115 63 -115 28 0 67
26 67 46 0 21 -18 17 -25 -6 -9 -27 -60 -27 -75 -1 -5 11 -10 45 -10 76 0 31
5 65 10 76 14 25 56 25 72 -1 15 -23 28 -26 28 -6 0 20 -39 46 -67 46 -13 0
-32 -9 -43 -20z"/>
<path d="M2180 205 c0 -70 4 -115 10 -115 6 0 10 45 10 115 0 70 -4 115 -10
115 -6 0 -10 -45 -10 -115z"/>
<path d="M834 285 c-12 -30 2 -176 17 -186 19 -12 49 -11 49 1 0 6 -9 10 -20
10 -18 0 -20 7 -20 55 0 48 2 55 20 55 11 0 20 5 20 10 0 6 -9 10 -20 10 -15
0 -20 7 -20 24 0 30 -18 44 -26 21z"/>
<path d="M1956 293 c-3 -3 -6 -44 -6 -89 0 -62 4 -87 16 -98 17 -18 54 -22 54
-6 0 6 -9 10 -20 10 -18 0 -20 7 -20 55 0 48 2 55 20 55 11 0 20 5 20 10 0 6
-9 10 -20 10 -15 0 -20 7 -20 24 0 26 -12 40 -24 29z"/>
<path d="M2230 290 c0 -5 7 -10 15 -10 8 0 15 5 15 10 0 6 -7 10 -15 10 -8 0
-15 -4 -15 -10z"/>
<path d="M565 220 c-24 -27 -24 -83 0 -110 22 -24 43 -25 73 -4 32 22 32 96 0
118 -30 21 -51 20 -73 -4z m64 -14 c17 -20 10 -77 -10 -89 -30 -19 -49 -1 -49
46 0 24 3 47 7 50 11 12 40 8 52 -7z"/>
<path d="M690 165 c0 -43 4 -75 10 -75 6 0 10 24 10 54 0 57 15 80 47 74 14
-2 19 -16 23 -61 6 -66 23 -81 28 -23 6 74 -42 130 -83 96 -10 -9 -15 -9 -15
-1 0 6 -4 11 -10 11 -6 0 -10 -32 -10 -75z"/>
<path d="M942 224 c-19 -13 -23 -23 -20 -62 2 -38 8 -49 29 -61 15 -9 36 -11
52 -7 37 9 34 27 -3 20 -32 -7 -60 8 -60 32 0 10 13 14 44 14 48 0 64 17 46
50 -17 32 -54 38 -88 14z m66 -26 c3 -15 -4 -18 -32 -18 -34 0 -47 15 -29 34
13 13 58 1 61 -16z"/>
<path d="M1272 224 c-17 -12 -22 -25 -22 -59 0 -34 5 -47 22 -59 31 -22 51
-20 76 7 29 31 29 77 -1 105 -28 26 -45 27 -75 6z m70 -29 c23 -51 -20 -106
-57 -75 -18 15 -20 71 -3 88 20 20 48 14 60 -13z"/>
<path d="M1400 225 c-19 -23 -8 -49 28 -64 20 -9 32 -22 32 -34 0 -16 -6 -19
-35 -15 -41 5 -47 -9 -8 -18 35 -9 58 7 58 42 0 23 -6 30 -33 38 -39 11 -40
40 -2 43 43 2 45 3 30 13 -22 14 -56 12 -70 -5z"/>
<path d="M1727 233 c-14 -13 -6 -18 25 -18 23 0 34 -5 36 -17 3 -14 -3 -18
-22 -18 -14 0 -35 -9 -45 -19 -36 -36 2 -86 47 -62 13 7 22 7 30 -1 9 -9 12 3
12 49 0 43 -5 66 -16 77 -16 16 -55 22 -67 9z m63 -86 c0 -19 -21 -37 -42 -37
-18 0 -25 29 -11 43 12 12 53 7 53 -6z"/>
<path d="M1852 228 c-23 -23 -14 -54 21 -69 45 -20 43 -44 -5 -43 -43 1 -51
-12 -12 -22 69 -17 100 47 37 75 -43 19 -46 53 -5 51 41 -3 49 -1 32 10 -21
13 -54 12 -68 -2z"/>
<path d="M2058 223 c-37 -42 -29 -104 16 -124 27 -12 76 -5 76 11 0 6 -11 8
-24 4 -35 -8 -66 4 -66 26 0 15 9 19 42 22 49 3 61 27 32 59 -21 24 -56 25
-76 2z m70 -25 c3 -15 -4 -18 -32 -18 -34 0 -47 15 -29 34 13 13 58 1 61 -16z"/>
<path d="M2235 228 c-9 -24 -1 -128 10 -131 13 -3 19 123 6 136 -7 7 -12 5
-16 -5z"/>
<path d="M2290 165 c0 -43 4 -75 10 -75 6 0 10 24 10 54 0 57 15 80 47 74 14
-2 19 -16 23 -61 6 -66 23 -81 28 -23 6 74 -42 130 -83 96 -10 -9 -15 -9 -15
-1 0 6 -4 11 -10 11 -6 0 -10 -32 -10 -75z"/>
<path d="M2595 220 c-37 -41 -13 -130 34 -130 37 0 61 29 61 75 0 34 -5 47
-22 59 -30 21 -51 20 -73 -4z m64 -14 c17 -20 10 -77 -10 -89 -30 -19 -49 -1
-49 46 0 24 3 47 7 50 11 12 40 8 52 -7z"/>
<path d="M2734 233 c-15 -11 -23 -38 -16 -50 4 -5 21 -16 37 -24 44 -21 39
-44 -7 -43 -21 1 -38 -3 -38 -7 0 -15 51 -22 76 -10 36 16 28 51 -16 72 -45
21 -46 44 -2 44 17 0 31 4 29 10 -4 12 -48 18 -63 8z"/>
</g>
</svg>
